<?xml version="1.0" encoding="UTF-8" standalone="no"?>
<!DOCTYPE svg PUBLIC "-//W3C//DTD SVG 1.1//EN" "http://www.w3.org/Graphics/SVG/1.1/DTD/svg11.dtd">
<svg width="100%" height="100%" viewBox="0 0 544 513" version="1.1" xmlns="http://www.w3.org/2000/svg" xmlns:xlink="http://www.w3.org/1999/xlink" xml:space="preserve" xmlns:serif="http://www.serif.com/" style="fill-rule:evenodd;clip-rule:evenodd;stroke-linejoin:round;stroke-miterlimit:2;">
    <rect id="Artboard1" x="0" y="-0" width="543.868" height="512.032" style="fill:none;"/>
    <clipPath id="_clip1">
        <rect id="Artboard11" serif:id="Artboard1" x="0" y="-0" width="543.868" height="512.032"/>
    </clipPath>
    <g clip-path="url(#_clip1)">
        <g transform="matrix(1,0,0,1,9.19265e-14,1)">
            <g transform="matrix(6.12323e-17,1,-1,6.12323e-17,511.433,-0.00882805)">
                <path d="M421.509,219.833L291.609,89.933L58.6,322.9C48.2,333.3 178.1,463.3 188.5,452.9L421.509,219.833Z" style="fill:rgb(255,255,0);fill-rule:nonzero;"/>
            </g>
            <g transform="matrix(6.12323e-17,1,-1,6.12323e-17,511.433,-0.00882805)">
                <path d="M200.7,440.7L170.125,443.114L168.225,408.2L137.123,410.086L135.94,375.89L102.731,375.668L102.213,342.138L70.139,343.05L70.8,310.7L58.6,322.9C48.2,333.3 40.6,346.2 36.4,360.3L1,480.7C-1.5,489.1 0.8,498.2 7.1,504.4C13.4,510.6 22.4,512.9 30.8,510.5L151.1,475.1C165.2,470.9 178.1,463.3 188.5,452.9L200.7,440.7Z" style="fill:rgb(216,197,173);fill-rule:nonzero;"/>
            </g>
            <g transform="matrix(6.12323e-17,1,-1,6.12323e-17,511.433,-0.00882805)">
                <path d="M58.008,502.494C58.008,502.494 52.577,475.2 44.409,467.033C36.241,458.866 9,453.492 9,453.492L1,480.7C-1.5,489.1 0.8,498.2 7.1,504.4C13.4,510.6 22.4,512.9 30.8,510.5L58.008,502.494Z" style="fill-rule:nonzero;"/>
            </g>
            <g transform="matrix(6.12323e-17,1,-1,6.12323e-17,511.433,-0.00882805)">
                <path d="M362.7,18.7L348.3,33.2L325.7,55.8L314.3,67.1L444.2,197L492.6,148.6C517.6,123.6 517.6,83.1 492.6,58.1L453.3,18.7C428.3,-6.3 387.8,-6.3 362.8,18.7L362.7,18.7Z" style="fill:rgb(255,128,128);fill-rule:nonzero;"/>
            </g>
            <g transform="matrix(6.12323e-17,1,-1,6.12323e-17,511.433,-0.00882805)">
                <path d="M412.825,228.833L282.925,98.933L322.409,59.133L452.309,189.033L412.825,228.833Z" style="fill:rgb(191,191,191);fill-rule:nonzero;"/>
            </g>
        </g>
        <g transform="matrix(1,0,0,1,9.19265e-14,1)">
            <g transform="matrix(1,6.93889e-18,-6.93889e-18,1,-46.1097,46.4523)">
                <path d="M397.978,202.833L282.925,98.933L301.978,72.548L418.461,177.448L397.978,202.833Z" style="fill:rgb(191,191,191);fill-rule:nonzero;"/>
            </g>
            <g transform="matrix(-1,-1.22465e-16,1.22465e-16,-1,575.868,512)">
                <path d="M319.7,392.5L203.7,288.1C143.9,290.3 96,339.6 96,400C96,403.9 96.2,407.8 96.6,411.6C98.4,429.1 86.4,448 68.8,448L64,448C46.3,448 32,462.3 32,480C32,497.7 46.3,512 64,512L208,512C269.9,512 320,461.9 320,400C320,397.5 319.9,395 319.8,392.5L319.7,392.5Z" style="fill:rgb(223,32,32);fill-rule:nonzero;"/>
            </g>
            <g transform="matrix(-1,-1.22465e-16,1.22465e-16,-1,575.868,512)">
                <path d="M339.3,367.1C366.6,363.2 391.2,347.7 406.5,324.2L568.2,74.1C580.8,54.6 577.6,28.8 560.6,12.9C543.6,-3 517.7,-4.4 499.1,9.6L262.4,187.2C238.4,205.2 224.2,233.3 224,263.3L339.3,367.1Z" style="fill:rgb(204,163,109);fill-rule:nonzero;"/>
            </g>
        </g>
    </g>
</svg>
